<svg xmlns="http://www.w3.org/2000/svg" viewBox="0 0 24 24" role="img"><title>Soundcore</title><path fill="#00C2A8" d="M12 3.2c-2.9 0-5.3 2.4-5.3 5.3v4.2c0 2.9 2.4 5.3 5.3 5.3s5.3-2.4 5.3-5.3V8.5c0-2.9-2.4-5.3-5.3-5.3zm0 1.8c1.9 0 3.5 1.6 3.5 3.5v4.2c0 1.9-1.6 3.5-3.5 3.5s-3.5-1.6-3.5-3.5V8.5c0-1.9 1.6-3.5 3.5-3.5z"/><path fill="#00C2A8" d="M4.2 10.2v1c0 4.3 3.5 7.8 7.8 7.8s7.8-3.5 7.8-7.8v-1h1.8v1c0 5.3-4.3 9.6-9.6 9.6S2.4 16.5 2.4 11.2v-1h1.8z"/><path fill="#00C2A8" d="M11.1 19.8h1.8V22h-1.8z"/></svg>
